<svg width="24" height="24" viewBox="0 0 24 24" fill="none" xmlns="http://www.w3.org/2000/svg">
<path d="M13.551 13.523L12.538 16.173C12.5223 16.21 12.5142 16.2498 12.5142 16.29C12.5142 16.3302 12.5223 16.37 12.538 16.407L14.275 20.973L16.294 19.862L13.875 13.522C13.8617 13.4909 13.8394 13.4644 13.811 13.446C13.7818 13.4271 13.7478 13.417 13.713 13.417C13.6782 13.417 13.6442 13.4271 13.615 13.446C13.5864 13.4647 13.5641 13.4915 13.551 13.523ZM15.577 9.057C15.5642 9.02475 15.5419 8.99719 15.513 8.978C15.4837 8.95885 15.4495 8.94866 15.4145 8.94866C15.3795 8.94866 15.3453 8.95885 15.316 8.978C15.2875 8.99734 15.2655 9.02489 15.253 9.057L14.24 11.707C14.2244 11.7439 14.2164 11.7835 14.2164 11.8235C14.2164 11.8635 14.2244 11.9031 14.24 11.94L17.093 19.417L19.107 18.306L15.577 9.05V9.057Z" fill="#A6A9B8"/>
<path d="M12 3.116C12.0513 3.116 12.0993 3.12933 12.144 3.156L19.957 7.516C20.0004 7.53998 20.0371 7.57434 20.064 7.616C20.0893 7.66 20.102 7.70667 20.102 7.756V16.239C20.1022 16.2877 20.0887 16.3356 20.063 16.377C20.0364 16.4185 20 16.4529 19.957 16.477L12.144 20.855C12.0997 20.8793 12.05 20.8921 11.9995 20.8921C11.949 20.8921 11.8993 20.8793 11.855 20.855L4.04199 16.485C3.99849 16.4607 3.96172 16.426 3.93499 16.384C3.9093 16.3419 3.89612 16.2933 3.89699 16.244V7.756C3.89793 7.70678 3.91183 7.65868 3.93728 7.61654C3.96274 7.57441 3.99886 7.53973 4.04199 7.516L11.855 3.156C11.8986 3.12846 11.9485 3.11262 12 3.11V3.116ZM12 2C11.728 2 11.45 2.071 11.207 2.205L3.53299 6.444C3.2944 6.57458 3.09437 6.76564 2.95299 6.998C2.81439 7.2266 2.74074 7.48867 2.73999 7.756V16.239C2.73999 16.779 3.04099 17.284 3.53299 17.556L11.207 21.796C11.4494 21.9309 11.7221 22.0016 11.9995 22.0016C12.2768 22.0016 12.5496 21.9309 12.792 21.796L20.467 17.556C20.707 17.4262 20.908 17.2346 21.049 17.001C21.189 16.769 21.261 16.506 21.259 16.239V7.756C21.257 7.48621 21.1823 7.22194 21.0428 6.99104C20.9032 6.76014 20.7039 6.57116 20.466 6.444L12.792 2.204C12.5485 2.07256 12.2767 2.00254 12 2Z" fill="#A6A9B8"/>
<path d="M6.92505 19.428L7.63005 17.578L9.04805 18.706L7.72405 19.873L6.92505 19.428Z" fill="#A6A9B8"/>
<path d="M11.36 7.001H9.40697C9.33532 7.00228 9.26568 7.02491 9.20697 7.066C9.15003 7.10603 9.10674 7.16258 9.08297 7.228L4.91797 18.3L6.92597 19.428L11.521 7.233C11.5306 7.20695 11.5338 7.17893 11.5301 7.15139C11.5265 7.12384 11.5161 7.09761 11.5 7.075C11.4826 7.05212 11.4602 7.03348 11.4346 7.02049C11.409 7.0075 11.3807 7.00049 11.352 7L11.36 7.001ZM14.762 7.001H12.818C12.7473 7.00179 12.6785 7.02335 12.62 7.063C12.5626 7.10221 12.5186 7.15805 12.494 7.223L7.72397 19.857L9.73897 20.985L14.924 7.229C14.9393 7.19081 14.9393 7.14819 14.924 7.11C14.9092 7.07124 14.8807 7.03923 14.844 7.02C14.8183 7.00792 14.7903 7.00144 14.762 7.001Z" fill="#A6A9B8"/>
</svg>
