<svg width="24" height="24" viewBox="0 0 24 24" fill="none" xmlns="http://www.w3.org/2000/svg">
<g clip-path="url(#clip0_135_708)">
<path fill-rule="evenodd" clip-rule="evenodd" d="M24 12C24 15.1826 22.7357 18.2348 20.4853 20.4853C18.2348 22.7357 15.1826 24 12 24C8.8174 24 5.76515 22.7357 3.51472 20.4853C1.26428 18.2348 0 15.1826 0 12C0 8.8174 1.26428 5.76515 3.51472 3.51472C5.76515 1.26428 8.8174 0 12 0C15.1826 0 18.2348 1.26428 20.4853 3.51472C22.7357 5.76515 24 8.8174 24 12ZM12 4.28571C12.1256 4.28576 12.2497 4.31343 12.3635 4.36675C12.4772 4.42007 12.5779 4.49775 12.6583 4.59429L16.944 9.73714C17.0168 9.82473 17.0715 9.92594 17.1047 10.0349C17.138 10.1438 17.1492 10.2583 17.1377 10.3716C17.1262 10.4849 17.0922 10.5948 17.0378 10.6949C16.9833 10.7949 16.9095 10.8831 16.8206 10.9543L12.5349 14.3829C12.383 14.5041 12.1944 14.5702 12 14.5702C11.8056 14.5702 11.617 14.5041 11.4651 14.3829L7.17943 10.9543C7.09051 10.8831 7.01667 10.7949 6.96222 10.6949C6.90777 10.5948 6.87381 10.4849 6.86232 10.3716C6.85083 10.2583 6.86204 10.1438 6.89529 10.0349C6.92855 9.92594 6.98318 9.82473 7.056 9.73714L11.3417 4.59429C11.4221 4.49775 11.5228 4.42007 11.6365 4.36675C11.7503 4.31343 11.8744 4.28576 12 4.28571ZM8.38286 14.592C8.2736 14.4989 8.14675 14.4288 8.00986 14.3857C7.87296 14.3426 7.7288 14.3274 7.58594 14.3411C7.44307 14.3548 7.30442 14.3971 7.1782 14.4654C7.05198 14.5337 6.94077 14.6267 6.85117 14.7388C6.76157 14.8509 6.69541 14.9799 6.65661 15.118C6.61781 15.2562 6.60717 15.4008 6.62532 15.5431C6.64346 15.6855 6.69003 15.8228 6.76224 15.9468C6.83446 16.0708 6.93086 16.1791 7.04571 16.2651L11.3314 19.6937C11.5213 19.8453 11.757 19.9279 12 19.9279C12.243 19.9279 12.4787 19.8453 12.6686 19.6937L16.9543 16.2651C17.0691 16.1791 17.1655 16.0708 17.2378 15.9468C17.31 15.8228 17.3565 15.6855 17.3747 15.5431C17.3928 15.4008 17.3822 15.2562 17.3434 15.118C17.3046 14.9799 17.2384 14.8509 17.1488 14.7388C17.0592 14.6267 16.948 14.5337 16.8218 14.4654C16.6956 14.3971 16.5569 14.3548 16.4141 14.3411C16.2712 14.3274 16.127 14.3426 15.9901 14.3857C15.8532 14.4288 15.7264 14.4989 15.6171 14.592L12 17.4857L8.38286 14.592Z" fill="#A6A9B8"/>
</g>
<defs>
<clipPath id="clip0_135_708">
<rect width="24" height="24" fill="white"/>
</clipPath>
</defs>
</svg>
