<svg width="13" height="12" viewBox="0 0 13 12" fill="none" xmlns="http://www.w3.org/2000/svg">
<g clip-path="url(#clip0_38_124)">
<path d="M1.25 1.5C1.25 0.672656 1.92266 0 2.75 0H6.5C7.32734 0 8 0.672656 8 1.5V6H8.1875C9.32656 6 10.25 6.92344 10.25 8.0625V8.8125C10.25 9.12422 10.5008 9.375 10.8125 9.375C11.1242 9.375 11.375 9.12422 11.375 8.8125V5.20312C10.7281 5.03672 10.25 4.44844 10.25 3.75V2.25L9.5 1.5C9.29375 1.29375 9.29375 0.95625 9.5 0.75C9.70625 0.54375 10.0437 0.54375 10.25 0.75L12.0617 2.56172C12.343 2.84297 12.5 3.225 12.5 3.62344V8.81484C12.5 9.74766 11.7453 10.5023 10.8125 10.5023C9.87969 10.5023 9.125 9.74766 9.125 8.81484V8.06484C9.125 7.54688 8.70547 7.12734 8.1875 7.12734H8V10.5023C8.41484 10.5023 8.75 10.8375 8.75 11.2523C8.75 11.6672 8.41484 12.0023 8 12.0023L1.25 12C0.835156 12 0.5 11.6648 0.5 11.25C0.5 10.8352 0.835156 10.5 1.25 10.5V1.5ZM2.75 1.875V4.125C2.75 4.33125 2.91875 4.5 3.125 4.5H6.125C6.33125 4.5 6.5 4.33125 6.5 4.125V1.875C6.5 1.66875 6.33125 1.5 6.125 1.5H3.125C2.91875 1.5 2.75 1.66875 2.75 1.875Z" fill="#A6A9B8"/>
</g>
<defs>
<clipPath id="clip0_38_124">
<rect width="12" height="12" fill="white" transform="translate(0.5)"/>
</clipPath>
</defs>
</svg>
