<svg width="17" height="16" viewBox="0 0 17 16" fill="none" xmlns="http://www.w3.org/2000/svg">
<g clip-path="url(#clip0_135_677)">
<path d="M12.242 10.344C13.2103 9.02267 13.644 7.38447 13.4563 5.75713C13.2687 4.12979 12.4735 2.63332 11.2298 1.56711C9.98616 0.500899 8.38579 -0.056418 6.74888 0.00665514C5.11197 0.0697283 3.55923 0.748541 2.40131 1.90729C1.24339 3.06603 0.565694 4.61926 0.503792 6.25621C0.44189 7.89317 1.00035 9.49314 2.06745 10.736C3.13455 11.9789 4.63159 12.773 6.25906 12.9596C7.88654 13.1461 9.52442 12.7112 10.845 11.742H10.844C10.8734 11.782 10.906 11.8203 10.942 11.857L14.792 15.707C14.9796 15.8946 15.2339 16.0001 15.4992 16.0002C15.7645 16.0003 16.0189 15.895 16.2065 15.7075C16.3942 15.52 16.4997 15.2656 16.4997 15.0003C16.4998 14.7351 16.3946 14.4806 16.207 14.293L12.357 10.443C12.3213 10.4068 12.2829 10.3743 12.242 10.344ZM12.5 6.49998C12.5 7.22225 12.3578 7.93745 12.0814 8.60474C11.805 9.27203 11.3999 9.87834 10.8891 10.3891C10.3784 10.8998 9.77209 11.3049 9.1048 11.5813C8.43751 11.8577 7.72231 12 7.00004 12C6.27777 12 5.56258 11.8577 4.89528 11.5813C4.22799 11.3049 3.62168 10.8998 3.11096 10.3891C2.60023 9.87834 2.19511 9.27203 1.91871 8.60474C1.64231 7.93745 1.50004 7.22225 1.50004 6.49998C1.50004 5.04129 2.07951 3.64234 3.11096 2.61089C4.14241 1.57944 5.54135 0.999979 7.00004 0.999979C8.45873 0.999979 9.85768 1.57944 10.8891 2.61089C11.9206 3.64234 12.5 5.04129 12.5 6.49998Z" fill="#A6A9B8"/>
</g>
<defs>
<clipPath id="clip0_135_677">
<rect width="16" height="16" fill="white" transform="translate(0.5)"/>
</clipPath>
</defs>
</svg>
