<svg width="11" height="10" viewBox="0 0 11 10" fill="none" xmlns="http://www.w3.org/2000/svg">
<path d="M6.585 5.855L7.285 4.645C7.33 4.57 7.31 4.475 7.245 4.42L6.505 3.84C6.52 3.73 6.53 3.615 6.53 3.5C6.53 3.385 6.52 3.27 6.505 3.155L7.245 2.575C7.31 2.52 7.33 2.425 7.285 2.35L6.585 1.14C6.54 1.065 6.45 1.035 6.37 1.065L5.5 1.415C5.32 1.275 5.125 1.16 4.91 1.07L4.78 0.145C4.77161 0.104561 4.74972 0.068178 4.71792 0.0418278C4.68611 0.0154776 4.6463 0.000727332 4.605 0H3.205C3.12 0 3.045 0.065 3.03 0.15L2.9 1.075C2.69 1.165 2.49 1.28 2.31 1.42L1.44 1.07C1.36 1.04 1.27 1.07 1.225 1.145L0.525002 2.355C0.480002 2.43 0.500002 2.525 0.565002 2.58L1.305 3.16C1.29 3.27 1.28 3.385 1.28 3.5C1.28 3.615 1.29 3.73 1.305 3.845L0.565002 4.425C0.500002 4.48 0.480002 4.575 0.525002 4.65L1.225 5.86C1.27 5.935 1.36 5.965 1.44 5.935L2.31 5.585C2.49 5.725 2.685 5.84 2.9 5.93L3.03 6.855C3.045 6.935 3.12 7 3.205 7H4.605C4.69 7 4.765 6.935 4.78 6.85L4.91 5.925C5.12 5.835 5.32 5.72 5.5 5.58L6.37 5.93C6.45 5.96 6.54 5.93 6.585 5.855ZM3.905 4.5C3.355 4.5 2.905 4.05 2.905 3.5C2.905 2.95 3.355 2.5 3.905 2.5C4.455 2.5 4.905 2.95 4.905 3.5C4.905 4.05 4.455 4.5 3.905 4.5ZM10.46 8.335L9.98 7.965C9.99 7.895 10 7.82 10 7.745C10 7.67 9.995 7.595 9.98 7.525L10.455 7.155C10.495 7.12 10.51 7.06 10.48 7.01L10.03 6.235C10.005 6.185 9.945 6.17 9.89 6.185L9.335 6.41C9.22 6.32 9.095 6.245 8.955 6.19L8.87 5.6C8.86802 5.57328 8.85618 5.54824 8.83678 5.52976C8.81737 5.51128 8.79179 5.50067 8.765 5.5H7.87C7.815 5.5 7.765 5.54 7.76 5.595L7.675 6.185C7.54 6.245 7.41 6.315 7.295 6.405L6.74 6.18C6.71452 6.17042 6.68647 6.17018 6.66084 6.17934C6.6352 6.18849 6.61365 6.20644 6.6 6.23L6.15 7.005C6.125 7.055 6.13 7.115 6.175 7.15L6.65 7.52C6.62974 7.66597 6.62974 7.81403 6.65 7.96L6.175 8.33C6.135 8.365 6.12 8.425 6.15 8.475L6.6 9.25C6.625 9.3 6.685 9.315 6.74 9.3L7.295 9.075C7.41 9.165 7.535 9.24 7.675 9.295L7.76 9.885C7.77 9.94 7.815 9.98 7.87 9.98H8.765C8.82 9.98 8.87 9.94 8.875 9.885L8.96 9.295C9.095 9.235 9.225 9.165 9.335 9.075L9.895 9.3C9.945 9.32 10.005 9.3 10.035 9.25L10.485 8.475C10.515 8.43 10.5 8.37 10.46 8.335ZM8.315 8.415C8.22633 8.41497 8.13853 8.39747 8.05661 8.3635C7.9747 8.32954 7.90028 8.27977 7.8376 8.21705C7.77492 8.15432 7.72521 8.07986 7.69131 7.99793C7.6574 7.91599 7.63997 7.82818 7.64 7.7395C7.64004 7.65083 7.65753 7.56302 7.6915 7.48111C7.72546 7.3992 7.77523 7.32478 7.83795 7.2621C7.90068 7.19942 7.97514 7.14971 8.05708 7.1158C8.13901 7.0819 8.22683 7.06447 8.3155 7.0645C8.49459 7.06457 8.66632 7.13577 8.7929 7.26245C8.91949 7.38913 8.99057 7.56091 8.9905 7.74C8.99044 7.91909 8.91923 8.09081 8.79255 8.2174C8.66587 8.34399 8.49409 8.41507 8.315 8.415Z" fill="#A6A9B8"/>
</svg>
